<?xml version="1.0" standalone="no"?>
<!DOCTYPE svg PUBLIC "-//W3C//DTD SVG 20010904//EN"
 "http://www.w3.org/TR/2001/REC-SVG-20010904/DTD/svg10.dtd">
<svg version="1.0" xmlns="http://www.w3.org/2000/svg"
 width="247.000000pt" height="247.000000pt" viewBox="0 0 247.000000 247.000000"
 preserveAspectRatio="xMidYMid meet">
<metadata>
Created by potrace 1.14, written by Peter Selinger 2001-2017
</metadata>
<g transform="translate(0.000000,247.000000) scale(0.100000,-0.100000)"
fill="#000000" stroke="none">
<path d="M620 2372 l-115 -47 -1 -450 c-1 -247 2 -454 6 -460 9 -10 237 -12
264 -2 12 5 15 39 15 219 0 309 -1 298 15 298 7 0 28 -17 45 -37 18 -21 56
-63 84 -93 29 -30 80 -86 115 -123 l62 -68 0 -245 c0 -221 2 -248 19 -282 50
-97 189 -98 245 -2 19 32 20 53 21 281 0 277 -9 241 86 344 26 28 61 66 78 85
68 75 134 140 143 140 11 0 10 10 12 -267 1 -133 4 -245 8 -249 4 -3 19 -6 33
-6 26 0 27 -3 27 -63 0 -118 0 -115 -32 -115 -16 0 -30 -3 -31 -7 0 -5 -2 -31
-4 -59 -13 -190 -137 -353 -316 -415 -82 -28 -211 -30 -286 -5 -188 63 -322
244 -324 438 0 21 -4 40 -10 43 -12 8 -256 8 -269 0 -12 -7 -5 -151 10 -190 5
-14 8 -25 5 -25 -2 0 7 -29 20 -65 26 -72 82 -177 115 -215 143 -167 278 -246
485 -285 60 -11 205 -5 272 11 325 79 560 356 580 682 l6 92 -27 0 -26 0 0 91
c0 73 3 90 14 86 34 -13 36 11 36 464 0 345 -3 449 -12 456 -7 6 -62 29 -123
52 l-110 42 -60 -63 c-33 -35 -107 -115 -165 -178 -58 -63 -120 -130 -138
-150 -19 -19 -55 -59 -80 -87 -43 -49 -76 -66 -84 -44 -1 5 -48 57 -103 116
-115 124 -121 131 -235 255 -109 118 -140 150 -148 150 -4 -1 -59 -22 -122
-48z"/>
<path d="M1237 342 c-2 -4 -3 -74 -2 -157 0 -134 2 -150 18 -153 9 -2 17 2 17
8 0 8 6 7 22 -1 56 -30 120 3 138 71 26 97 -39 164 -119 122 l-36 -19 0 65 c0
54 -3 66 -17 68 -10 1 -19 -1 -21 -4z m140 -144 c19 -24 22 -61 8 -95 -8 -18
-18 -34 -22 -34 -60 -10 -93 17 -85 69 8 57 72 95 99 60z"/>
<path d="M363 332 c-5 -4 -10 -69 -10 -155 0 -145 1 -148 21 -145 19 3 21 10
21 66 -1 34 2 63 5 63 20 5 150 4 151 0 1 -3 2 -33 3 -66 1 -53 3 -60 23 -63
21 -3 21 -1 21 147 0 83 -4 153 -9 156 -22 14 -35 -12 -34 -70 l0 -60 -75 -1
c-41 0 -77 3 -80 7 -3 5 -5 33 -4 63 1 54 -10 73 -33 58z"/>
<path d="M866 231 c-34 -21 -50 -54 -50 -108 0 -38 5 -50 31 -73 23 -21 37
-26 61 -22 17 2 37 10 43 18 15 19 33 18 25 -1 -4 -11 1 -15 17 -15 21 0 22 3
22 105 0 94 -1 105 -17 105 -10 0 -18 -5 -18 -10 0 -6 -10 -4 -23 4 -27 18
-58 17 -91 -3z m93 -40 c14 -14 18 -29 15 -53 -5 -33 -44 -78 -67 -78 -26 1
-48 29 -49 63 -3 73 57 112 101 68z"/>
<path d="M1710 241 c-41 -11 -73 -68 -67 -119 5 -50 28 -79 71 -91 53 -13 125
18 107 47 -6 10 -14 9 -40 -4 -27 -13 -37 -14 -62 -4 -16 7 -29 16 -29 20 0 5
-2 14 -5 22 -4 10 11 13 70 12 62 -1 75 2 76 15 4 47 -14 85 -48 100 -26 12
-36 12 -73 2z m72 -40 c3 -3 8 -15 10 -26 3 -17 -3 -20 -38 -20 -23 -1 -49 2
-60 5 -17 6 -16 9 9 34 26 26 56 29 79 7z"/>
<path d="M2045 237 c-2 -7 -3 -56 -3 -109 1 -88 3 -98 20 -98 10 0 18 3 19 8
0 4 2 27 4 52 6 71 21 99 61 116 19 8 33 20 31 27 -7 20 -50 9 -75 -19 l-23
-26 3 27 c2 20 -2 28 -15 31 -10 1 -20 -3 -22 -9z"/>
</g>
</svg>
